<svg xmlns="http://www.w3.org/2000/svg" width="24" height="24" viewBox="0 0 24 24"><path d="M3.514 292.65c-.818 0-1.514.696-1.514 1.514v2.486h2v-2h2v-2zM18 292.65v2h2v2h1.977l.023-2.486c.008-.818-.696-1.514-1.514-1.514zM2 308.65v2.484c0 .818.696 1.516 1.514 1.516H6v-2H4v-2zM20 308.65v2h-2v2h2.486c.818 0 1.514-.698 1.514-1.516v-2.484z" style="color:#000;font-style:normal;font-variant:normal;font-weight:400;font-stretch:normal;font-size:medium;line-height:normal;font-family:sans-serif;font-variant-ligatures:normal;font-variant-position:normal;font-variant-caps:normal;font-variant-numeric:normal;font-variant-alternates:normal;font-feature-settings:normal;text-indent:0;text-align:start;text-decoration:none;text-decoration-line:none;text-decoration-style:solid;text-decoration-color:#000;letter-spacing:normal;word-spacing:normal;text-transform:none;writing-mode:lr-tb;direction:ltr;text-orientation:mixed;dominant-baseline:auto;baseline-shift:baseline;text-anchor:start;white-space:normal;shape-padding:0;clip-rule:nonzero;display:inline;overflow:visible;visibility:visible;opacity:1;isolation:auto;mix-blend-mode:normal;color-interpolation:sRGB;color-interpolation-filters:linearRGB;solid-color:#000;solid-opacity:1;vector-effect:none;fill:#fff;fill-opacity:1;fill-rule:nonzero;stroke:none;stroke-width:2.50000024;stroke-linecap:butt;stroke-linejoin:miter;stroke-miterlimit:4;stroke-dasharray:none;stroke-dashoffset:1.80060005;stroke-opacity:1;paint-order:normal;color-rendering:auto;image-rendering:auto;shape-rendering:auto;text-rendering:auto" transform="translate(0 -290.65)"/><path d="M8 310.65h3v2H8zM13 310.65h3v2h-3zM8 292.65h3v2H8zM13 292.65h3v2h-3z" style="opacity:1;fill:#fff;fill-opacity:1;stroke:none;stroke-width:0;stroke-linecap:butt;stroke-linejoin:miter;stroke-miterlimit:4;stroke-dasharray:none;stroke-dashoffset:6.80541754;stroke-opacity:1;paint-order:stroke fill markers" transform="translate(0 -290.65)"/><path d="M298.65-4h3v2h-3zM303.65-4h3v2h-3zM298.65-22h3v2h-3zM303.65-22h3v2h-3z" style="opacity:1;fill:#fff;fill-opacity:1;stroke:none;stroke-width:0;stroke-linecap:butt;stroke-linejoin:miter;stroke-miterlimit:4;stroke-dasharray:none;stroke-dashoffset:6.80541754;stroke-opacity:1;paint-order:stroke fill markers" transform="matrix(0 1 -1 0 0 -290.65)"/></svg>